# xmcd CD database file
#
# Track frame offsets:
#	187
#	21143
#	43276
#	63010
#	81150
#	100978
#	126856
#	139138
#	158282
#	179663
#
# Disc length: 2698 seconds
#
# Revision: 3
# Processed by: cddbd v1.5.2PL0 Copyright (c) Steve Scherf et al.
# Submitted via: CDex 1.70beta3
#
DISCID=800a880a
DTITLE=八神純子 - 夢みる頃を過ぎても
DYEAR=1982
DGENRE=JPop
TTITLE0=夢みる頃を過ぎても
TTITLE1=シークレット・ラブ
TTITLE2=白い花束
TTITLE3=金曜日の夜
TTITLE4=一年前の恋人
TTITLE5=ナイス・メモリーズ
TTITLE6=B・G・M
TTITLE7=I'm A Woman
TTITLE8=FLY AWAY
TTITLE9=二人だけ
EXTD=YEAR: 1982
EXTT0=
EXTT1=
EXTT2=
EXTT3=
EXTT4=
EXTT5=
EXTT6=
EXTT7=
EXTT8=
EXTT9=
PLAYORDER=
